<mxfile host="Electron" agent="Mozilla/5.0 (Windows NT 10.0; Win64; x64) AppleWebKit/537.36 (KHTML, like Gecko) draw.io/26.0.9 Chrome/128.0.6613.186 Electron/32.2.5 Safari/537.36" version="26.0.9">
  <diagram id="C5RBs43oDa-KdzZeNtuy" name="Page-1">
    <mxGraphModel dx="4261" dy="1596" grid="0" gridSize="10" guides="1" tooltips="1" connect="1" arrows="1" fold="1" page="1" pageScale="1" pageWidth="827" pageHeight="1169" math="0" shadow="0">
      <root>
        <mxCell id="WIyWlLk6GJQsqaUBKTNV-0" />
        <mxCell id="WIyWlLk6GJQsqaUBKTNV-1" parent="WIyWlLk6GJQsqaUBKTNV-0" />
        <mxCell id="zkfFHV4jXpPFQw0GAbJ--0" value="Unit" style="swimlane;fontStyle=2;align=center;verticalAlign=top;childLayout=stackLayout;horizontal=1;startSize=26;horizontalStack=0;resizeParent=1;resizeLast=0;collapsible=1;marginBottom=0;rounded=0;shadow=0;strokeWidth=1;" parent="WIyWlLk6GJQsqaUBKTNV-1" vertex="1">
          <mxGeometry x="-729" y="29" width="160" height="110" as="geometry">
            <mxRectangle x="230" y="140" width="160" height="26" as="alternateBounds" />
          </mxGeometry>
        </mxCell>
        <mxCell id="zkfFHV4jXpPFQw0GAbJ--3" value="+ add(Unit, Flags)" style="text;align=left;verticalAlign=top;spacingLeft=4;spacingRight=4;overflow=hidden;rotatable=0;points=[[0,0.5],[1,0.5]];portConstraint=eastwest;rounded=0;shadow=0;html=0;" parent="zkfFHV4jXpPFQw0GAbJ--0" vertex="1">
          <mxGeometry y="26" width="160" height="26" as="geometry" />
        </mxCell>
        <mxCell id="IS594JqyZ8pi_EjxFz1i-0" value="+ compile(level: int)" style="text;align=left;verticalAlign=top;spacingLeft=4;spacingRight=4;overflow=hidden;rotatable=0;points=[[0,0.5],[1,0.5]];portConstraint=eastwest;rounded=0;shadow=0;html=0;" parent="zkfFHV4jXpPFQw0GAbJ--0" vertex="1">
          <mxGeometry y="52" width="160" height="26" as="geometry" />
        </mxCell>
        <mxCell id="IS594JqyZ8pi_EjxFz1i-1" value="# generateShift(level: int)" style="text;align=left;verticalAlign=top;spacingLeft=4;spacingRight=4;overflow=hidden;rotatable=0;points=[[0,0.5],[1,0.5]];portConstraint=eastwest;rounded=0;shadow=0;html=0;" parent="zkfFHV4jXpPFQw0GAbJ--0" vertex="1">
          <mxGeometry y="78" width="160" height="26" as="geometry" />
        </mxCell>
        <mxCell id="yi9F2hUMOcIZ3VDtwogj-16" value="" style="edgeStyle=orthogonalEdgeStyle;rounded=0;orthogonalLoop=1;jettySize=auto;html=1;endArrow=none;startFill=0;strokeWidth=2;" edge="1" parent="WIyWlLk6GJQsqaUBKTNV-1" source="zkfFHV4jXpPFQw0GAbJ--17" target="yi9F2hUMOcIZ3VDtwogj-14">
          <mxGeometry relative="1" as="geometry" />
        </mxCell>
        <mxCell id="zkfFHV4jXpPFQw0GAbJ--17" value="PrintOperationUnit" style="swimlane;fontStyle=0;align=center;verticalAlign=top;childLayout=stackLayout;horizontal=1;startSize=26;horizontalStack=0;resizeParent=1;resizeLast=0;collapsible=1;marginBottom=0;rounded=0;shadow=0;strokeWidth=1;" parent="WIyWlLk6GJQsqaUBKTNV-1" vertex="1">
          <mxGeometry x="-453" y="200" width="160" height="90" as="geometry">
            <mxRectangle x="550" y="140" width="160" height="26" as="alternateBounds" />
          </mxGeometry>
        </mxCell>
        <mxCell id="zkfFHV4jXpPFQw0GAbJ--18" value="# m_text: string" style="text;align=left;verticalAlign=top;spacingLeft=4;spacingRight=4;overflow=hidden;rotatable=0;points=[[0,0.5],[1,0.5]];portConstraint=eastwest;" parent="zkfFHV4jXpPFQw0GAbJ--17" vertex="1">
          <mxGeometry y="26" width="160" height="26" as="geometry" />
        </mxCell>
        <mxCell id="zkfFHV4jXpPFQw0GAbJ--23" value="" style="line;html=1;strokeWidth=1;align=left;verticalAlign=middle;spacingTop=-1;spacingLeft=3;spacingRight=3;rotatable=0;labelPosition=right;points=[];portConstraint=eastwest;" parent="zkfFHV4jXpPFQw0GAbJ--17" vertex="1">
          <mxGeometry y="52" width="160" height="8" as="geometry" />
        </mxCell>
        <mxCell id="zkfFHV4jXpPFQw0GAbJ--24" value="PrintOperation(text: string)" style="text;align=left;verticalAlign=top;spacingLeft=4;spacingRight=4;overflow=hidden;rotatable=0;points=[[0,0.5],[1,0.5]];portConstraint=eastwest;" parent="zkfFHV4jXpPFQw0GAbJ--17" vertex="1">
          <mxGeometry y="60" width="160" height="26" as="geometry" />
        </mxCell>
        <mxCell id="yi9F2hUMOcIZ3VDtwogj-21" value="" style="edgeStyle=orthogonalEdgeStyle;rounded=0;orthogonalLoop=1;jettySize=auto;html=1;endArrow=none;startFill=0;strokeWidth=2;" edge="1" parent="WIyWlLk6GJQsqaUBKTNV-1" source="IS594JqyZ8pi_EjxFz1i-2" target="yi9F2hUMOcIZ3VDtwogj-15">
          <mxGeometry relative="1" as="geometry" />
        </mxCell>
        <mxCell id="IS594JqyZ8pi_EjxFz1i-2" value="MethodUnit" style="swimlane;fontStyle=1;align=center;verticalAlign=top;childLayout=stackLayout;horizontal=1;startSize=26;horizontalStack=0;resizeParent=1;resizeParentMax=0;resizeLast=0;collapsible=1;marginBottom=0;whiteSpace=wrap;html=1;" parent="WIyWlLk6GJQsqaUBKTNV-1" vertex="1">
          <mxGeometry x="337" y="124" width="380" height="192" as="geometry" />
        </mxCell>
        <mxCell id="IS594JqyZ8pi_EjxFz1i-3" value="# m_name: string" style="text;strokeColor=none;fillColor=none;align=left;verticalAlign=top;spacingLeft=4;spacingRight=4;overflow=hidden;rotatable=0;points=[[0,0.5],[1,0.5]];portConstraint=eastwest;whiteSpace=wrap;html=1;" parent="IS594JqyZ8pi_EjxFz1i-2" vertex="1">
          <mxGeometry y="26" width="380" height="26" as="geometry" />
        </mxCell>
        <mxCell id="IS594JqyZ8pi_EjxFz1i-5" value="# m_returnType: string" style="text;strokeColor=none;fillColor=none;align=left;verticalAlign=top;spacingLeft=4;spacingRight=4;overflow=hidden;rotatable=0;points=[[0,0.5],[1,0.5]];portConstraint=eastwest;whiteSpace=wrap;html=1;" parent="IS594JqyZ8pi_EjxFz1i-2" vertex="1">
          <mxGeometry y="52" width="380" height="26" as="geometry" />
        </mxCell>
        <mxCell id="IS594JqyZ8pi_EjxFz1i-6" value="# m_flags: Flags" style="text;strokeColor=none;fillColor=none;align=left;verticalAlign=top;spacingLeft=4;spacingRight=4;overflow=hidden;rotatable=0;points=[[0,0.5],[1,0.5]];portConstraint=eastwest;whiteSpace=wrap;html=1;" parent="IS594JqyZ8pi_EjxFz1i-2" vertex="1">
          <mxGeometry y="78" width="380" height="26" as="geometry" />
        </mxCell>
        <mxCell id="IS594JqyZ8pi_EjxFz1i-7" value="# m_body: Unit[]" style="text;strokeColor=none;fillColor=none;align=left;verticalAlign=top;spacingLeft=4;spacingRight=4;overflow=hidden;rotatable=0;points=[[0,0.5],[1,0.5]];portConstraint=eastwest;whiteSpace=wrap;html=1;" parent="IS594JqyZ8pi_EjxFz1i-2" vertex="1">
          <mxGeometry y="104" width="380" height="26" as="geometry" />
        </mxCell>
        <mxCell id="IS594JqyZ8pi_EjxFz1i-4" value="" style="line;strokeWidth=1;fillColor=none;align=left;verticalAlign=middle;spacingTop=-1;spacingLeft=3;spacingRight=3;rotatable=0;labelPosition=right;points=[];portConstraint=eastwest;strokeColor=inherit;" parent="IS594JqyZ8pi_EjxFz1i-2" vertex="1">
          <mxGeometry y="130" width="380" height="10" as="geometry" />
        </mxCell>
        <mxCell id="IS594JqyZ8pi_EjxFz1i-8" value="+ MethodUnit(name: string, returnType: string, flags: Flags)" style="text;strokeColor=none;fillColor=none;align=left;verticalAlign=top;spacingLeft=4;spacingRight=4;overflow=hidden;rotatable=0;points=[[0,0.5],[1,0.5]];portConstraint=eastwest;whiteSpace=wrap;html=1;" parent="IS594JqyZ8pi_EjxFz1i-2" vertex="1">
          <mxGeometry y="140" width="380" height="26" as="geometry" />
        </mxCell>
        <mxCell id="IS594JqyZ8pi_EjxFz1i-9" value="+ add(unit: Unit, flags: Flags)" style="text;strokeColor=none;fillColor=none;align=left;verticalAlign=top;spacingLeft=4;spacingRight=4;overflow=hidden;rotatable=0;points=[[0,0.5],[1,0.5]];portConstraint=eastwest;whiteSpace=wrap;html=1;" parent="IS594JqyZ8pi_EjxFz1i-2" vertex="1">
          <mxGeometry y="166" width="380" height="26" as="geometry" />
        </mxCell>
        <mxCell id="yi9F2hUMOcIZ3VDtwogj-20" value="" style="edgeStyle=orthogonalEdgeStyle;rounded=0;orthogonalLoop=1;jettySize=auto;html=1;endArrow=none;startFill=0;strokeWidth=2;" edge="1" parent="WIyWlLk6GJQsqaUBKTNV-1" source="IS594JqyZ8pi_EjxFz1i-10" target="yi9F2hUMOcIZ3VDtwogj-13">
          <mxGeometry relative="1" as="geometry" />
        </mxCell>
        <mxCell id="IS594JqyZ8pi_EjxFz1i-10" value="ClassUnit" style="swimlane;fontStyle=0;childLayout=stackLayout;horizontal=1;startSize=26;fillColor=none;horizontalStack=0;resizeParent=1;resizeParentMax=0;resizeLast=0;collapsible=1;marginBottom=0;whiteSpace=wrap;html=1;" parent="WIyWlLk6GJQsqaUBKTNV-1" vertex="1">
          <mxGeometry x="-69" y="163" width="220" height="114" as="geometry" />
        </mxCell>
        <mxCell id="IS594JqyZ8pi_EjxFz1i-11" value="# n_name: string" style="text;strokeColor=none;fillColor=none;align=left;verticalAlign=top;spacingLeft=4;spacingRight=4;overflow=hidden;rotatable=0;points=[[0,0.5],[1,0.5]];portConstraint=eastwest;whiteSpace=wrap;html=1;" parent="IS594JqyZ8pi_EjxFz1i-10" vertex="1">
          <mxGeometry y="26" width="220" height="26" as="geometry" />
        </mxCell>
        <mxCell id="IS594JqyZ8pi_EjxFz1i-12" value="# m_fields: Unit[][]" style="text;strokeColor=none;fillColor=none;align=left;verticalAlign=top;spacingLeft=4;spacingRight=4;overflow=hidden;rotatable=0;points=[[0,0.5],[1,0.5]];portConstraint=eastwest;whiteSpace=wrap;html=1;" parent="IS594JqyZ8pi_EjxFz1i-10" vertex="1">
          <mxGeometry y="52" width="220" height="26" as="geometry" />
        </mxCell>
        <mxCell id="IS594JqyZ8pi_EjxFz1i-15" value="" style="line;strokeWidth=1;fillColor=none;align=left;verticalAlign=middle;spacingTop=-1;spacingLeft=3;spacingRight=3;rotatable=0;labelPosition=right;points=[];portConstraint=eastwest;strokeColor=inherit;" parent="IS594JqyZ8pi_EjxFz1i-10" vertex="1">
          <mxGeometry y="78" width="220" height="10" as="geometry" />
        </mxCell>
        <mxCell id="IS594JqyZ8pi_EjxFz1i-13" value="+ ClassUnit(name: string)" style="text;strokeColor=none;fillColor=none;align=left;verticalAlign=top;spacingLeft=4;spacingRight=4;overflow=hidden;rotatable=0;points=[[0,0.5],[1,0.5]];portConstraint=eastwest;whiteSpace=wrap;html=1;" parent="IS594JqyZ8pi_EjxFz1i-10" vertex="1">
          <mxGeometry y="88" width="220" height="26" as="geometry" />
        </mxCell>
        <mxCell id="IS594JqyZ8pi_EjxFz1i-16" value="LanguageFactory" style="swimlane;fontStyle=1;align=center;verticalAlign=top;childLayout=stackLayout;horizontal=1;startSize=26;horizontalStack=0;resizeParent=1;resizeParentMax=0;resizeLast=0;collapsible=1;marginBottom=0;whiteSpace=wrap;html=1;" parent="WIyWlLk6GJQsqaUBKTNV-1" vertex="1">
          <mxGeometry x="-1603" y="611" width="290" height="116" as="geometry" />
        </mxCell>
        <mxCell id="IS594JqyZ8pi_EjxFz1i-19" value="createClass(name: string): ClassUnit" style="text;strokeColor=none;fillColor=none;align=left;verticalAlign=top;spacingLeft=4;spacingRight=4;overflow=hidden;rotatable=0;points=[[0,0.5],[1,0.5]];portConstraint=eastwest;whiteSpace=wrap;html=1;" parent="IS594JqyZ8pi_EjxFz1i-16" vertex="1">
          <mxGeometry y="26" width="290" height="26" as="geometry" />
        </mxCell>
        <mxCell id="IS594JqyZ8pi_EjxFz1i-20" value="createMethod(name: string, returnType: string, flags: Flags): MethoUnit" style="text;strokeColor=none;fillColor=none;align=left;verticalAlign=top;spacingLeft=4;spacingRight=4;overflow=hidden;rotatable=0;points=[[0,0.5],[1,0.5]];portConstraint=eastwest;whiteSpace=wrap;html=1;" parent="IS594JqyZ8pi_EjxFz1i-16" vertex="1">
          <mxGeometry y="52" width="290" height="38" as="geometry" />
        </mxCell>
        <mxCell id="IS594JqyZ8pi_EjxFz1i-21" value="createPrintOperation(text: string): PrintOperationUnit" style="text;strokeColor=none;fillColor=none;align=left;verticalAlign=top;spacingLeft=4;spacingRight=4;overflow=hidden;rotatable=0;points=[[0,0.5],[1,0.5]];portConstraint=eastwest;whiteSpace=wrap;html=1;" parent="IS594JqyZ8pi_EjxFz1i-16" vertex="1">
          <mxGeometry y="90" width="290" height="26" as="geometry" />
        </mxCell>
        <mxCell id="yi9F2hUMOcIZ3VDtwogj-25" value="" style="edgeStyle=orthogonalEdgeStyle;rounded=0;orthogonalLoop=1;jettySize=auto;html=1;endArrow=none;startFill=0;strokeWidth=2;" edge="1" parent="WIyWlLk6GJQsqaUBKTNV-1" source="IS594JqyZ8pi_EjxFz1i-22" target="yi9F2hUMOcIZ3VDtwogj-24">
          <mxGeometry relative="1" as="geometry" />
        </mxCell>
        <mxCell id="yi9F2hUMOcIZ3VDtwogj-28" value="" style="edgeStyle=orthogonalEdgeStyle;rounded=0;orthogonalLoop=1;jettySize=auto;html=1;endArrow=none;startFill=0;dashed=1;endSize=14;startSize=14;strokeColor=#616161;" edge="1" parent="WIyWlLk6GJQsqaUBKTNV-1" source="IS594JqyZ8pi_EjxFz1i-22" target="yi9F2hUMOcIZ3VDtwogj-27">
          <mxGeometry relative="1" as="geometry" />
        </mxCell>
        <mxCell id="IS594JqyZ8pi_EjxFz1i-22" value="JavaFactory" style="swimlane;fontStyle=1;align=center;verticalAlign=top;childLayout=stackLayout;horizontal=1;startSize=26;horizontalStack=0;resizeParent=1;resizeParentMax=0;resizeLast=0;collapsible=1;marginBottom=0;whiteSpace=wrap;html=1;" parent="WIyWlLk6GJQsqaUBKTNV-1" vertex="1">
          <mxGeometry x="-1103" y="871" width="290" height="116" as="geometry" />
        </mxCell>
        <mxCell id="IS594JqyZ8pi_EjxFz1i-23" value="createClass(name: string): ClassUnit" style="text;strokeColor=none;fillColor=none;align=left;verticalAlign=top;spacingLeft=4;spacingRight=4;overflow=hidden;rotatable=0;points=[[0,0.5],[1,0.5]];portConstraint=eastwest;whiteSpace=wrap;html=1;" parent="IS594JqyZ8pi_EjxFz1i-22" vertex="1">
          <mxGeometry y="26" width="290" height="26" as="geometry" />
        </mxCell>
        <mxCell id="IS594JqyZ8pi_EjxFz1i-24" value="createMethod(name: string, returnType: string, flags: Flags): MethoUnit" style="text;strokeColor=none;fillColor=none;align=left;verticalAlign=top;spacingLeft=4;spacingRight=4;overflow=hidden;rotatable=0;points=[[0,0.5],[1,0.5]];portConstraint=eastwest;whiteSpace=wrap;html=1;" parent="IS594JqyZ8pi_EjxFz1i-22" vertex="1">
          <mxGeometry y="52" width="290" height="38" as="geometry" />
        </mxCell>
        <mxCell id="IS594JqyZ8pi_EjxFz1i-25" value="createPrintOperation(text: string): PrintOperationUnit" style="text;strokeColor=none;fillColor=none;align=left;verticalAlign=top;spacingLeft=4;spacingRight=4;overflow=hidden;rotatable=0;points=[[0,0.5],[1,0.5]];portConstraint=eastwest;whiteSpace=wrap;html=1;" parent="IS594JqyZ8pi_EjxFz1i-22" vertex="1">
          <mxGeometry y="90" width="290" height="26" as="geometry" />
        </mxCell>
        <mxCell id="yi9F2hUMOcIZ3VDtwogj-49" value="" style="edgeStyle=orthogonalEdgeStyle;rounded=0;orthogonalLoop=1;jettySize=auto;html=1;endArrow=none;startFill=0;dashed=1;endSize=14;startSize=14;strokeWidth=1;strokeColor=#616161;" edge="1" parent="WIyWlLk6GJQsqaUBKTNV-1" source="IS594JqyZ8pi_EjxFz1i-26" target="yi9F2hUMOcIZ3VDtwogj-48">
          <mxGeometry relative="1" as="geometry" />
        </mxCell>
        <mxCell id="IS594JqyZ8pi_EjxFz1i-26" value="CppFactory&lt;span style=&quot;color: rgba(0, 0, 0, 0); font-family: monospace; font-size: 0px; font-weight: 400; text-align: start; text-wrap-mode: nowrap;&quot;&gt;%3CmxGraphModel%3E%3Croot%3E%3CmxCell%20id%3D%220%22%2F%3E%3CmxCell%20id%3D%221%22%20parent%3D%220%22%2F%3E%3CmxCell%20id%3D%222%22%20value%3D%22JavaFactory%22%20style%3D%22swimlane%3BfontStyle%3D1%3Balign%3Dcenter%3BverticalAlign%3Dtop%3BchildLayout%3DstackLayout%3Bhorizontal%3D1%3BstartSize%3D26%3BhorizontalStack%3D0%3BresizeParent%3D1%3BresizeParentMax%3D0%3BresizeLast%3D0%3Bcollapsible%3D1%3BmarginBottom%3D0%3BwhiteSpace%3Dwrap%3Bhtml%3D1%3B%22%20vertex%3D%221%22%20parent%3D%221%22%3E%3CmxGeometry%20x%3D%22410%22%20y%3D%22370%22%20width%3D%22290%22%20height%3D%22116%22%20as%3D%22geometry%22%2F%3E%3C%2FmxCell%3E%3CmxCell%20id%3D%223%22%20value%3D%22createClass(name%3A%20string)%3A%20ClassUnit%22%20style%3D%22text%3BstrokeColor%3Dnone%3BfillColor%3Dnone%3Balign%3Dleft%3BverticalAlign%3Dtop%3BspacingLeft%3D4%3BspacingRight%3D4%3Boverflow%3Dhidden%3Brotatable%3D0%3Bpoints%3D%5B%5B0%2C0.5%5D%2C%5B1%2C0.5%5D%5D%3BportConstraint%3Deastwest%3BwhiteSpace%3Dwrap%3Bhtml%3D1%3B%22%20vertex%3D%221%22%20parent%3D%222%22%3E%3CmxGeometry%20y%3D%2226%22%20width%3D%22290%22%20height%3D%2226%22%20as%3D%22geometry%22%2F%3E%3C%2FmxCell%3E%3CmxCell%20id%3D%224%22%20value%3D%22createMethod(name%3A%20string%2C%20returnType%3A%20string%2C%20flags%3A%20Flags)%3A%20MethoUnit%22%20style%3D%22text%3BstrokeColor%3Dnone%3BfillColor%3Dnone%3Balign%3Dleft%3BverticalAlign%3Dtop%3BspacingLeft%3D4%3BspacingRight%3D4%3Boverflow%3Dhidden%3Brotatable%3D0%3Bpoints%3D%5B%5B0%2C0.5%5D%2C%5B1%2C0.5%5D%5D%3BportConstraint%3Deastwest%3BwhiteSpace%3Dwrap%3Bhtml%3D1%3B%22%20vertex%3D%221%22%20parent%3D%222%22%3E%3CmxGeometry%20y%3D%2252%22%20width%3D%22290%22%20height%3D%2238%22%20as%3D%22geometry%22%2F%3E%3C%2FmxCell%3E%3CmxCell%20id%3D%225%22%20value%3D%22createPrintOperation(text%3A%20string)%3A%20PrintOperationUnit%22%20style%3D%22text%3BstrokeColor%3Dnone%3BfillColor%3Dnone%3Balign%3Dleft%3BverticalAlign%3Dtop%3BspacingLeft%3D4%3BspacingRight%3D4%3Boverflow%3Dhidden%3Brotatable%3D0%3Bpoints%3D%5B%5B0%2C0.5%5D%2C%5B1%2C0.5%5D%5D%3BportConstraint%3Deastwest%3BwhiteSpace%3Dwrap%3Bhtml%3D1%3B%22%20vertex%3D%221%22%20parent%3D%222%22%3E%3CmxGeometry%20y%3D%2290%22%20width%3D%22290%22%20height%3D%2226%22%20as%3D%22geometry%22%2F%3E%3C%2FmxCell%3E%3C%2Froot%3E%3C%2FmxGraphModel%3E&lt;/span&gt;" style="swimlane;fontStyle=1;align=center;verticalAlign=top;childLayout=stackLayout;horizontal=1;startSize=26;horizontalStack=0;resizeParent=1;resizeParentMax=0;resizeLast=0;collapsible=1;marginBottom=0;whiteSpace=wrap;html=1;" parent="WIyWlLk6GJQsqaUBKTNV-1" vertex="1">
          <mxGeometry x="-1113" y="292" width="290" height="116" as="geometry" />
        </mxCell>
        <mxCell id="IS594JqyZ8pi_EjxFz1i-27" value="createClass(name: string): ClassUnit" style="text;strokeColor=none;fillColor=none;align=left;verticalAlign=top;spacingLeft=4;spacingRight=4;overflow=hidden;rotatable=0;points=[[0,0.5],[1,0.5]];portConstraint=eastwest;whiteSpace=wrap;html=1;" parent="IS594JqyZ8pi_EjxFz1i-26" vertex="1">
          <mxGeometry y="26" width="290" height="26" as="geometry" />
        </mxCell>
        <mxCell id="IS594JqyZ8pi_EjxFz1i-28" value="createMethod(name: string, returnType: string, flags: Flags): MethoUnit" style="text;strokeColor=none;fillColor=none;align=left;verticalAlign=top;spacingLeft=4;spacingRight=4;overflow=hidden;rotatable=0;points=[[0,0.5],[1,0.5]];portConstraint=eastwest;whiteSpace=wrap;html=1;" parent="IS594JqyZ8pi_EjxFz1i-26" vertex="1">
          <mxGeometry y="52" width="290" height="38" as="geometry" />
        </mxCell>
        <mxCell id="IS594JqyZ8pi_EjxFz1i-29" value="createPrintOperation(text: string): PrintOperationUnit" style="text;strokeColor=none;fillColor=none;align=left;verticalAlign=top;spacingLeft=4;spacingRight=4;overflow=hidden;rotatable=0;points=[[0,0.5],[1,0.5]];portConstraint=eastwest;whiteSpace=wrap;html=1;" parent="IS594JqyZ8pi_EjxFz1i-26" vertex="1">
          <mxGeometry y="90" width="290" height="26" as="geometry" />
        </mxCell>
        <mxCell id="yi9F2hUMOcIZ3VDtwogj-37" value="" style="edgeStyle=orthogonalEdgeStyle;rounded=0;orthogonalLoop=1;jettySize=auto;html=1;endArrow=none;startFill=0;dashed=1;endSize=14;startSize=14;strokeColor=#616161;" edge="1" parent="WIyWlLk6GJQsqaUBKTNV-1" source="IS594JqyZ8pi_EjxFz1i-30" target="yi9F2hUMOcIZ3VDtwogj-36">
          <mxGeometry relative="1" as="geometry" />
        </mxCell>
        <mxCell id="IS594JqyZ8pi_EjxFz1i-30" value="CsFactory" style="swimlane;fontStyle=1;align=center;verticalAlign=top;childLayout=stackLayout;horizontal=1;startSize=26;horizontalStack=0;resizeParent=1;resizeParentMax=0;resizeLast=0;collapsible=1;marginBottom=0;whiteSpace=wrap;html=1;" parent="WIyWlLk6GJQsqaUBKTNV-1" vertex="1">
          <mxGeometry x="-1113" y="600" width="290" height="116" as="geometry" />
        </mxCell>
        <mxCell id="IS594JqyZ8pi_EjxFz1i-31" value="createClass(name: string): ClassUnit" style="text;strokeColor=none;fillColor=none;align=left;verticalAlign=top;spacingLeft=4;spacingRight=4;overflow=hidden;rotatable=0;points=[[0,0.5],[1,0.5]];portConstraint=eastwest;whiteSpace=wrap;html=1;" parent="IS594JqyZ8pi_EjxFz1i-30" vertex="1">
          <mxGeometry y="26" width="290" height="26" as="geometry" />
        </mxCell>
        <mxCell id="IS594JqyZ8pi_EjxFz1i-32" value="createMethod(name: string, returnType: string, flags: Flags): MethoUnit" style="text;strokeColor=none;fillColor=none;align=left;verticalAlign=top;spacingLeft=4;spacingRight=4;overflow=hidden;rotatable=0;points=[[0,0.5],[1,0.5]];portConstraint=eastwest;whiteSpace=wrap;html=1;" parent="IS594JqyZ8pi_EjxFz1i-30" vertex="1">
          <mxGeometry y="52" width="290" height="38" as="geometry" />
        </mxCell>
        <mxCell id="IS594JqyZ8pi_EjxFz1i-33" value="createPrintOperation(text: string): PrintOperationUnit" style="text;strokeColor=none;fillColor=none;align=left;verticalAlign=top;spacingLeft=4;spacingRight=4;overflow=hidden;rotatable=0;points=[[0,0.5],[1,0.5]];portConstraint=eastwest;whiteSpace=wrap;html=1;" parent="IS594JqyZ8pi_EjxFz1i-30" vertex="1">
          <mxGeometry y="90" width="290" height="26" as="geometry" />
        </mxCell>
        <mxCell id="yi9F2hUMOcIZ3VDtwogj-87" value="" style="edgeStyle=orthogonalEdgeStyle;rounded=0;orthogonalLoop=1;jettySize=auto;html=1;endSize=14;startSize=14;endArrow=none;startFill=0;dashed=1;jumpSize=9;dashPattern=8 8;strokeWidth=2;" edge="1" parent="WIyWlLk6GJQsqaUBKTNV-1" source="mp8nZ5o4XO6WJjloSZy4-8" target="yi9F2hUMOcIZ3VDtwogj-85">
          <mxGeometry relative="1" as="geometry" />
        </mxCell>
        <mxCell id="mp8nZ5o4XO6WJjloSZy4-8" value="CppClassUnit" style="swimlane;fontStyle=1;align=center;verticalAlign=top;childLayout=stackLayout;horizontal=1;startSize=26;horizontalStack=0;resizeParent=1;resizeParentMax=0;resizeLast=0;collapsible=1;marginBottom=0;whiteSpace=wrap;html=1;" parent="WIyWlLk6GJQsqaUBKTNV-1" vertex="1">
          <mxGeometry x="-313" y="433" width="305" height="138" as="geometry" />
        </mxCell>
        <mxCell id="mp8nZ5o4XO6WJjloSZy4-9" value="+ ACCESS_MODIFIRES: string[]" style="text;strokeColor=none;fillColor=none;align=left;verticalAlign=top;spacingLeft=4;spacingRight=4;overflow=hidden;rotatable=0;points=[[0,0.5],[1,0.5]];portConstraint=eastwest;whiteSpace=wrap;html=1;" parent="mp8nZ5o4XO6WJjloSZy4-8" vertex="1">
          <mxGeometry y="26" width="305" height="26" as="geometry" />
        </mxCell>
        <mxCell id="mp8nZ5o4XO6WJjloSZy4-10" value="" style="line;strokeWidth=1;fillColor=none;align=left;verticalAlign=middle;spacingTop=-1;spacingLeft=3;spacingRight=3;rotatable=0;labelPosition=right;points=[];portConstraint=eastwest;strokeColor=inherit;" parent="mp8nZ5o4XO6WJjloSZy4-8" vertex="1">
          <mxGeometry y="52" width="305" height="8" as="geometry" />
        </mxCell>
        <mxCell id="mp8nZ5o4XO6WJjloSZy4-11" value="+ CppClassUnit(name: string)" style="text;strokeColor=none;fillColor=none;align=left;verticalAlign=top;spacingLeft=4;spacingRight=4;overflow=hidden;rotatable=0;points=[[0,0.5],[1,0.5]];portConstraint=eastwest;whiteSpace=wrap;html=1;" parent="mp8nZ5o4XO6WJjloSZy4-8" vertex="1">
          <mxGeometry y="60" width="305" height="26" as="geometry" />
        </mxCell>
        <mxCell id="mp8nZ5o4XO6WJjloSZy4-12" value="+ complie(level: int): string" style="text;strokeColor=none;fillColor=none;align=left;verticalAlign=top;spacingLeft=4;spacingRight=4;overflow=hidden;rotatable=0;points=[[0,0.5],[1,0.5]];portConstraint=eastwest;whiteSpace=wrap;html=1;" parent="mp8nZ5o4XO6WJjloSZy4-8" vertex="1">
          <mxGeometry y="86" width="305" height="26" as="geometry" />
        </mxCell>
        <mxCell id="mp8nZ5o4XO6WJjloSZy4-13" value="+ add(unit: Unit, flags: Flags)" style="text;strokeColor=none;fillColor=none;align=left;verticalAlign=top;spacingLeft=4;spacingRight=4;overflow=hidden;rotatable=0;points=[[0,0.5],[1,0.5]];portConstraint=eastwest;whiteSpace=wrap;html=1;" parent="mp8nZ5o4XO6WJjloSZy4-8" vertex="1">
          <mxGeometry y="112" width="305" height="26" as="geometry" />
        </mxCell>
        <mxCell id="yi9F2hUMOcIZ3VDtwogj-56" value="" style="edgeStyle=orthogonalEdgeStyle;rounded=0;orthogonalLoop=1;jettySize=auto;html=1;endArrow=none;startFill=0;dashed=1;endSize=14;startSize=14;endFill=0;startArrow=open;strokeWidth=1;strokeColor=#616161;" edge="1" parent="WIyWlLk6GJQsqaUBKTNV-1" source="mp8nZ5o4XO6WJjloSZy4-14" target="yi9F2hUMOcIZ3VDtwogj-54">
          <mxGeometry relative="1" as="geometry" />
        </mxCell>
        <mxCell id="yi9F2hUMOcIZ3VDtwogj-96" value="" style="edgeStyle=orthogonalEdgeStyle;rounded=0;orthogonalLoop=1;jettySize=auto;html=1;endSize=14;startSize=14;endArrow=none;startFill=0;dashed=1;dashPattern=8 8;jumpSize=9;strokeWidth=2;" edge="1" parent="WIyWlLk6GJQsqaUBKTNV-1" source="mp8nZ5o4XO6WJjloSZy4-14" target="yi9F2hUMOcIZ3VDtwogj-94">
          <mxGeometry relative="1" as="geometry" />
        </mxCell>
        <mxCell id="mp8nZ5o4XO6WJjloSZy4-14" value="CppMethodUnit" style="swimlane;fontStyle=1;align=center;verticalAlign=top;childLayout=stackLayout;horizontal=1;startSize=26;horizontalStack=0;resizeParent=1;resizeParentMax=0;resizeLast=0;collapsible=1;marginBottom=0;whiteSpace=wrap;html=1;" parent="WIyWlLk6GJQsqaUBKTNV-1" vertex="1">
          <mxGeometry x="107" y="444" width="370" height="82" as="geometry" />
        </mxCell>
        <mxCell id="mp8nZ5o4XO6WJjloSZy4-17" value="+&amp;nbsp;&lt;span style=&quot;text-align: center;&quot;&gt;CppMethodUnit&lt;/span&gt;(name: string, returnType: string, flags: Flags)" style="text;strokeColor=none;fillColor=none;align=left;verticalAlign=top;spacingLeft=4;spacingRight=4;overflow=hidden;rotatable=0;points=[[0,0.5],[1,0.5]];portConstraint=eastwest;whiteSpace=wrap;html=1;" parent="mp8nZ5o4XO6WJjloSZy4-14" vertex="1">
          <mxGeometry y="26" width="370" height="30" as="geometry" />
        </mxCell>
        <mxCell id="mp8nZ5o4XO6WJjloSZy4-18" value="+ complie(level: int): string" style="text;strokeColor=none;fillColor=none;align=left;verticalAlign=top;spacingLeft=4;spacingRight=4;overflow=hidden;rotatable=0;points=[[0,0.5],[1,0.5]];portConstraint=eastwest;whiteSpace=wrap;html=1;" parent="mp8nZ5o4XO6WJjloSZy4-14" vertex="1">
          <mxGeometry y="56" width="370" height="26" as="geometry" />
        </mxCell>
        <mxCell id="yi9F2hUMOcIZ3VDtwogj-72" value="" style="edgeStyle=orthogonalEdgeStyle;rounded=0;orthogonalLoop=1;jettySize=auto;html=1;endSize=14;startSize=14;endArrow=none;startFill=0;dashed=1;jumpSize=9;dashPattern=8 8;strokeWidth=2;" edge="1" parent="WIyWlLk6GJQsqaUBKTNV-1" source="mp8nZ5o4XO6WJjloSZy4-20" target="yi9F2hUMOcIZ3VDtwogj-70">
          <mxGeometry relative="1" as="geometry" />
        </mxCell>
        <mxCell id="mp8nZ5o4XO6WJjloSZy4-20" value="CppOperationUnit" style="swimlane;fontStyle=1;align=center;verticalAlign=top;childLayout=stackLayout;horizontal=1;startSize=26;horizontalStack=0;resizeParent=1;resizeParentMax=0;resizeLast=0;collapsible=1;marginBottom=0;whiteSpace=wrap;html=1;" parent="WIyWlLk6GJQsqaUBKTNV-1" vertex="1">
          <mxGeometry x="-803" y="444" width="370" height="116" as="geometry" />
        </mxCell>
        <mxCell id="mp8nZ5o4XO6WJjloSZy4-21" value="+ ACCESS_MODIFIRES: string[]" style="text;strokeColor=none;fillColor=none;align=left;verticalAlign=top;spacingLeft=4;spacingRight=4;overflow=hidden;rotatable=0;points=[[0,0.5],[1,0.5]];portConstraint=eastwest;whiteSpace=wrap;html=1;" parent="mp8nZ5o4XO6WJjloSZy4-20" vertex="1">
          <mxGeometry y="26" width="370" height="26" as="geometry" />
        </mxCell>
        <mxCell id="mp8nZ5o4XO6WJjloSZy4-22" value="" style="line;strokeWidth=1;fillColor=none;align=left;verticalAlign=middle;spacingTop=-1;spacingLeft=3;spacingRight=3;rotatable=0;labelPosition=right;points=[];portConstraint=eastwest;strokeColor=inherit;" parent="mp8nZ5o4XO6WJjloSZy4-20" vertex="1">
          <mxGeometry y="52" width="370" height="8" as="geometry" />
        </mxCell>
        <mxCell id="mp8nZ5o4XO6WJjloSZy4-23" value="+&amp;nbsp;&lt;span style=&quot;text-align: center;&quot;&gt;CppOperationUnit&lt;/span&gt;(text: string)" style="text;strokeColor=none;fillColor=none;align=left;verticalAlign=top;spacingLeft=4;spacingRight=4;overflow=hidden;rotatable=0;points=[[0,0.5],[1,0.5]];portConstraint=eastwest;whiteSpace=wrap;html=1;" parent="mp8nZ5o4XO6WJjloSZy4-20" vertex="1">
          <mxGeometry y="60" width="370" height="30" as="geometry" />
        </mxCell>
        <mxCell id="mp8nZ5o4XO6WJjloSZy4-24" value="+ complie(level: int): string" style="text;strokeColor=none;fillColor=none;align=left;verticalAlign=top;spacingLeft=4;spacingRight=4;overflow=hidden;rotatable=0;points=[[0,0.5],[1,0.5]];portConstraint=eastwest;whiteSpace=wrap;html=1;" parent="mp8nZ5o4XO6WJjloSZy4-20" vertex="1">
          <mxGeometry y="90" width="370" height="26" as="geometry" />
        </mxCell>
        <mxCell id="yi9F2hUMOcIZ3VDtwogj-81" value="" style="edgeStyle=orthogonalEdgeStyle;rounded=0;orthogonalLoop=1;jettySize=auto;html=1;endSize=14;startSize=14;endArrow=none;startFill=0;dashed=1;jumpSize=9;dashPattern=8 8;strokeWidth=2;" edge="1" parent="WIyWlLk6GJQsqaUBKTNV-1" source="mp8nZ5o4XO6WJjloSZy4-25" target="yi9F2hUMOcIZ3VDtwogj-80">
          <mxGeometry relative="1" as="geometry" />
        </mxCell>
        <mxCell id="mp8nZ5o4XO6WJjloSZy4-25" value="JavaClassUnit" style="swimlane;fontStyle=1;align=center;verticalAlign=top;childLayout=stackLayout;horizontal=1;startSize=26;horizontalStack=0;resizeParent=1;resizeParentMax=0;resizeLast=0;collapsible=1;marginBottom=0;whiteSpace=wrap;html=1;" parent="WIyWlLk6GJQsqaUBKTNV-1" vertex="1">
          <mxGeometry x="-320.5" y="1007" width="305" height="138" as="geometry" />
        </mxCell>
        <mxCell id="mp8nZ5o4XO6WJjloSZy4-26" value="+ ACCESS_MODIFIRES: string[]" style="text;strokeColor=none;fillColor=none;align=left;verticalAlign=top;spacingLeft=4;spacingRight=4;overflow=hidden;rotatable=0;points=[[0,0.5],[1,0.5]];portConstraint=eastwest;whiteSpace=wrap;html=1;" parent="mp8nZ5o4XO6WJjloSZy4-25" vertex="1">
          <mxGeometry y="26" width="305" height="26" as="geometry" />
        </mxCell>
        <mxCell id="mp8nZ5o4XO6WJjloSZy4-27" value="" style="line;strokeWidth=1;fillColor=none;align=left;verticalAlign=middle;spacingTop=-1;spacingLeft=3;spacingRight=3;rotatable=0;labelPosition=right;points=[];portConstraint=eastwest;strokeColor=inherit;" parent="mp8nZ5o4XO6WJjloSZy4-25" vertex="1">
          <mxGeometry y="52" width="305" height="8" as="geometry" />
        </mxCell>
        <mxCell id="mp8nZ5o4XO6WJjloSZy4-28" value="+ JavaClassUnit(name: string)" style="text;strokeColor=none;fillColor=none;align=left;verticalAlign=top;spacingLeft=4;spacingRight=4;overflow=hidden;rotatable=0;points=[[0,0.5],[1,0.5]];portConstraint=eastwest;whiteSpace=wrap;html=1;" parent="mp8nZ5o4XO6WJjloSZy4-25" vertex="1">
          <mxGeometry y="60" width="305" height="26" as="geometry" />
        </mxCell>
        <mxCell id="mp8nZ5o4XO6WJjloSZy4-29" value="+ complie(level: int): string" style="text;strokeColor=none;fillColor=none;align=left;verticalAlign=top;spacingLeft=4;spacingRight=4;overflow=hidden;rotatable=0;points=[[0,0.5],[1,0.5]];portConstraint=eastwest;whiteSpace=wrap;html=1;" parent="mp8nZ5o4XO6WJjloSZy4-25" vertex="1">
          <mxGeometry y="86" width="305" height="26" as="geometry" />
        </mxCell>
        <mxCell id="mp8nZ5o4XO6WJjloSZy4-30" value="+ add(unit: Unit, flags: Flags)" style="text;strokeColor=none;fillColor=none;align=left;verticalAlign=top;spacingLeft=4;spacingRight=4;overflow=hidden;rotatable=0;points=[[0,0.5],[1,0.5]];portConstraint=eastwest;whiteSpace=wrap;html=1;" parent="mp8nZ5o4XO6WJjloSZy4-25" vertex="1">
          <mxGeometry y="112" width="305" height="26" as="geometry" />
        </mxCell>
        <mxCell id="yi9F2hUMOcIZ3VDtwogj-90" value="" style="edgeStyle=orthogonalEdgeStyle;rounded=0;orthogonalLoop=1;jettySize=auto;html=1;endSize=14;startSize=14;endArrow=none;startFill=0;dashed=1;jumpSize=9;dashPattern=8 8;strokeWidth=2;" edge="1" parent="WIyWlLk6GJQsqaUBKTNV-1" source="mp8nZ5o4XO6WJjloSZy4-31" target="yi9F2hUMOcIZ3VDtwogj-89">
          <mxGeometry relative="1" as="geometry" />
        </mxCell>
        <mxCell id="mp8nZ5o4XO6WJjloSZy4-31" value="JavaMethodUnit" style="swimlane;fontStyle=1;align=center;verticalAlign=top;childLayout=stackLayout;horizontal=1;startSize=26;horizontalStack=0;resizeParent=1;resizeParentMax=0;resizeLast=0;collapsible=1;marginBottom=0;whiteSpace=wrap;html=1;" parent="WIyWlLk6GJQsqaUBKTNV-1" vertex="1">
          <mxGeometry x="107" y="1018" width="370" height="82" as="geometry" />
        </mxCell>
        <mxCell id="mp8nZ5o4XO6WJjloSZy4-32" value="+ Java&lt;span style=&quot;text-align: center;&quot;&gt;MethodUnit&lt;/span&gt;(name: string, returnType: string, flags: Flags)" style="text;strokeColor=none;fillColor=none;align=left;verticalAlign=top;spacingLeft=4;spacingRight=4;overflow=hidden;rotatable=0;points=[[0,0.5],[1,0.5]];portConstraint=eastwest;whiteSpace=wrap;html=1;" parent="mp8nZ5o4XO6WJjloSZy4-31" vertex="1">
          <mxGeometry y="26" width="370" height="30" as="geometry" />
        </mxCell>
        <mxCell id="mp8nZ5o4XO6WJjloSZy4-33" value="+ complie(level: int): string" style="text;strokeColor=none;fillColor=none;align=left;verticalAlign=top;spacingLeft=4;spacingRight=4;overflow=hidden;rotatable=0;points=[[0,0.5],[1,0.5]];portConstraint=eastwest;whiteSpace=wrap;html=1;" parent="mp8nZ5o4XO6WJjloSZy4-31" vertex="1">
          <mxGeometry y="56" width="370" height="26" as="geometry" />
        </mxCell>
        <mxCell id="yi9F2hUMOcIZ3VDtwogj-62" value="" style="edgeStyle=orthogonalEdgeStyle;rounded=0;orthogonalLoop=1;jettySize=auto;html=1;endSize=14;startSize=14;endArrow=none;startFill=0;dashed=1;jumpSize=9;dashPattern=8 8;strokeWidth=2;" edge="1" parent="WIyWlLk6GJQsqaUBKTNV-1" source="mp8nZ5o4XO6WJjloSZy4-34" target="yi9F2hUMOcIZ3VDtwogj-60">
          <mxGeometry relative="1" as="geometry" />
        </mxCell>
        <mxCell id="mp8nZ5o4XO6WJjloSZy4-34" value="JavaOperationUnit" style="swimlane;fontStyle=1;align=center;verticalAlign=top;childLayout=stackLayout;horizontal=1;startSize=26;horizontalStack=0;resizeParent=1;resizeParentMax=0;resizeLast=0;collapsible=1;marginBottom=0;whiteSpace=wrap;html=1;" parent="WIyWlLk6GJQsqaUBKTNV-1" vertex="1">
          <mxGeometry x="-793" y="1018" width="370" height="116" as="geometry" />
        </mxCell>
        <mxCell id="mp8nZ5o4XO6WJjloSZy4-35" value="+ ACCESS_MODIFIRES: string[]" style="text;strokeColor=none;fillColor=none;align=left;verticalAlign=top;spacingLeft=4;spacingRight=4;overflow=hidden;rotatable=0;points=[[0,0.5],[1,0.5]];portConstraint=eastwest;whiteSpace=wrap;html=1;" parent="mp8nZ5o4XO6WJjloSZy4-34" vertex="1">
          <mxGeometry y="26" width="370" height="26" as="geometry" />
        </mxCell>
        <mxCell id="mp8nZ5o4XO6WJjloSZy4-36" value="" style="line;strokeWidth=1;fillColor=none;align=left;verticalAlign=middle;spacingTop=-1;spacingLeft=3;spacingRight=3;rotatable=0;labelPosition=right;points=[];portConstraint=eastwest;strokeColor=inherit;" parent="mp8nZ5o4XO6WJjloSZy4-34" vertex="1">
          <mxGeometry y="52" width="370" height="8" as="geometry" />
        </mxCell>
        <mxCell id="mp8nZ5o4XO6WJjloSZy4-37" value="+ Java&lt;span style=&quot;text-align: center;&quot;&gt;OperationUnit&lt;/span&gt;(text: string)" style="text;strokeColor=none;fillColor=none;align=left;verticalAlign=top;spacingLeft=4;spacingRight=4;overflow=hidden;rotatable=0;points=[[0,0.5],[1,0.5]];portConstraint=eastwest;whiteSpace=wrap;html=1;" parent="mp8nZ5o4XO6WJjloSZy4-34" vertex="1">
          <mxGeometry y="60" width="370" height="30" as="geometry" />
        </mxCell>
        <mxCell id="mp8nZ5o4XO6WJjloSZy4-38" value="+ complie(level: int): string" style="text;strokeColor=none;fillColor=none;align=left;verticalAlign=top;spacingLeft=4;spacingRight=4;overflow=hidden;rotatable=0;points=[[0,0.5],[1,0.5]];portConstraint=eastwest;whiteSpace=wrap;html=1;" parent="mp8nZ5o4XO6WJjloSZy4-34" vertex="1">
          <mxGeometry y="90" width="370" height="26" as="geometry" />
        </mxCell>
        <mxCell id="yi9F2hUMOcIZ3VDtwogj-84" value="" style="edgeStyle=orthogonalEdgeStyle;rounded=0;orthogonalLoop=1;jettySize=auto;html=1;endSize=14;startSize=14;endArrow=none;startFill=0;dashed=1;strokeWidth=2;dashPattern=8 8;" edge="1" parent="WIyWlLk6GJQsqaUBKTNV-1" source="mp8nZ5o4XO6WJjloSZy4-39" target="yi9F2hUMOcIZ3VDtwogj-82">
          <mxGeometry relative="1" as="geometry" />
        </mxCell>
        <mxCell id="mp8nZ5o4XO6WJjloSZy4-39" value="CsClassUnit" style="swimlane;fontStyle=1;align=center;verticalAlign=top;childLayout=stackLayout;horizontal=1;startSize=26;horizontalStack=0;resizeParent=1;resizeParentMax=0;resizeLast=0;collapsible=1;marginBottom=0;whiteSpace=wrap;html=1;" parent="WIyWlLk6GJQsqaUBKTNV-1" vertex="1">
          <mxGeometry x="-320.5" y="733" width="305" height="138" as="geometry" />
        </mxCell>
        <mxCell id="mp8nZ5o4XO6WJjloSZy4-40" value="+ ACCESS_MODIFIRES: string[]" style="text;strokeColor=none;fillColor=none;align=left;verticalAlign=top;spacingLeft=4;spacingRight=4;overflow=hidden;rotatable=0;points=[[0,0.5],[1,0.5]];portConstraint=eastwest;whiteSpace=wrap;html=1;" parent="mp8nZ5o4XO6WJjloSZy4-39" vertex="1">
          <mxGeometry y="26" width="305" height="26" as="geometry" />
        </mxCell>
        <mxCell id="mp8nZ5o4XO6WJjloSZy4-41" value="" style="line;strokeWidth=1;fillColor=none;align=left;verticalAlign=middle;spacingTop=-1;spacingLeft=3;spacingRight=3;rotatable=0;labelPosition=right;points=[];portConstraint=eastwest;strokeColor=inherit;" parent="mp8nZ5o4XO6WJjloSZy4-39" vertex="1">
          <mxGeometry y="52" width="305" height="8" as="geometry" />
        </mxCell>
        <mxCell id="mp8nZ5o4XO6WJjloSZy4-42" value="+ CsClassUnit(name: string)" style="text;strokeColor=none;fillColor=none;align=left;verticalAlign=top;spacingLeft=4;spacingRight=4;overflow=hidden;rotatable=0;points=[[0,0.5],[1,0.5]];portConstraint=eastwest;whiteSpace=wrap;html=1;" parent="mp8nZ5o4XO6WJjloSZy4-39" vertex="1">
          <mxGeometry y="60" width="305" height="26" as="geometry" />
        </mxCell>
        <mxCell id="mp8nZ5o4XO6WJjloSZy4-43" value="+ complie(level: int): string" style="text;strokeColor=none;fillColor=none;align=left;verticalAlign=top;spacingLeft=4;spacingRight=4;overflow=hidden;rotatable=0;points=[[0,0.5],[1,0.5]];portConstraint=eastwest;whiteSpace=wrap;html=1;" parent="mp8nZ5o4XO6WJjloSZy4-39" vertex="1">
          <mxGeometry y="86" width="305" height="26" as="geometry" />
        </mxCell>
        <mxCell id="mp8nZ5o4XO6WJjloSZy4-44" value="+ add(unit: Unit, flags: Flags)" style="text;strokeColor=none;fillColor=none;align=left;verticalAlign=top;spacingLeft=4;spacingRight=4;overflow=hidden;rotatable=0;points=[[0,0.5],[1,0.5]];portConstraint=eastwest;whiteSpace=wrap;html=1;" parent="mp8nZ5o4XO6WJjloSZy4-39" vertex="1">
          <mxGeometry y="112" width="305" height="26" as="geometry" />
        </mxCell>
        <mxCell id="yi9F2hUMOcIZ3VDtwogj-46" value="" style="edgeStyle=orthogonalEdgeStyle;rounded=0;orthogonalLoop=1;jettySize=auto;html=1;endArrow=none;startFill=0;dashed=1;endSize=14;startSize=14;endFill=0;startArrow=open;strokeColor=#616161;" edge="1" parent="WIyWlLk6GJQsqaUBKTNV-1" source="mp8nZ5o4XO6WJjloSZy4-45" target="yi9F2hUMOcIZ3VDtwogj-42">
          <mxGeometry relative="1" as="geometry" />
        </mxCell>
        <mxCell id="yi9F2hUMOcIZ3VDtwogj-93" value="" style="edgeStyle=orthogonalEdgeStyle;rounded=0;orthogonalLoop=1;jettySize=auto;html=1;jumpSize=9;dashed=1;dashPattern=8 8;strokeWidth=2;endArrow=none;startFill=0;" edge="1" parent="WIyWlLk6GJQsqaUBKTNV-1" source="mp8nZ5o4XO6WJjloSZy4-45" target="yi9F2hUMOcIZ3VDtwogj-91">
          <mxGeometry relative="1" as="geometry" />
        </mxCell>
        <mxCell id="mp8nZ5o4XO6WJjloSZy4-45" value="CsMethodUnit" style="swimlane;fontStyle=1;align=center;verticalAlign=top;childLayout=stackLayout;horizontal=1;startSize=26;horizontalStack=0;resizeParent=1;resizeParentMax=0;resizeLast=0;collapsible=1;marginBottom=0;whiteSpace=wrap;html=1;" parent="WIyWlLk6GJQsqaUBKTNV-1" vertex="1">
          <mxGeometry x="107" y="764" width="370" height="82" as="geometry" />
        </mxCell>
        <mxCell id="mp8nZ5o4XO6WJjloSZy4-46" value="+&amp;nbsp;&lt;span style=&quot;text-align: center;&quot;&gt;CppMethodUnit&lt;/span&gt;(name: string, returnType: string, flags: Flags)" style="text;strokeColor=none;fillColor=none;align=left;verticalAlign=top;spacingLeft=4;spacingRight=4;overflow=hidden;rotatable=0;points=[[0,0.5],[1,0.5]];portConstraint=eastwest;whiteSpace=wrap;html=1;" parent="mp8nZ5o4XO6WJjloSZy4-45" vertex="1">
          <mxGeometry y="26" width="370" height="30" as="geometry" />
        </mxCell>
        <mxCell id="mp8nZ5o4XO6WJjloSZy4-47" value="+ complie(level: int): string" style="text;strokeColor=none;fillColor=none;align=left;verticalAlign=top;spacingLeft=4;spacingRight=4;overflow=hidden;rotatable=0;points=[[0,0.5],[1,0.5]];portConstraint=eastwest;whiteSpace=wrap;html=1;" parent="mp8nZ5o4XO6WJjloSZy4-45" vertex="1">
          <mxGeometry y="56" width="370" height="26" as="geometry" />
        </mxCell>
        <mxCell id="yi9F2hUMOcIZ3VDtwogj-69" value="" style="edgeStyle=orthogonalEdgeStyle;rounded=0;orthogonalLoop=1;jettySize=auto;html=1;endSize=14;startSize=14;endArrow=none;startFill=0;dashed=1;jumpSize=9;dashPattern=8 8;strokeWidth=2;" edge="1" parent="WIyWlLk6GJQsqaUBKTNV-1" source="mp8nZ5o4XO6WJjloSZy4-48" target="yi9F2hUMOcIZ3VDtwogj-67">
          <mxGeometry relative="1" as="geometry" />
        </mxCell>
        <mxCell id="mp8nZ5o4XO6WJjloSZy4-48" value="CsOperationUnit" style="swimlane;fontStyle=1;align=center;verticalAlign=top;childLayout=stackLayout;horizontal=1;startSize=26;horizontalStack=0;resizeParent=1;resizeParentMax=0;resizeLast=0;collapsible=1;marginBottom=0;whiteSpace=wrap;html=1;" parent="WIyWlLk6GJQsqaUBKTNV-1" vertex="1">
          <mxGeometry x="-793" y="747" width="370" height="116" as="geometry" />
        </mxCell>
        <mxCell id="mp8nZ5o4XO6WJjloSZy4-49" value="+ ACCESS_MODIFIRES: string[]" style="text;strokeColor=none;fillColor=none;align=left;verticalAlign=top;spacingLeft=4;spacingRight=4;overflow=hidden;rotatable=0;points=[[0,0.5],[1,0.5]];portConstraint=eastwest;whiteSpace=wrap;html=1;" parent="mp8nZ5o4XO6WJjloSZy4-48" vertex="1">
          <mxGeometry y="26" width="370" height="26" as="geometry" />
        </mxCell>
        <mxCell id="mp8nZ5o4XO6WJjloSZy4-50" value="" style="line;strokeWidth=1;fillColor=none;align=left;verticalAlign=middle;spacingTop=-1;spacingLeft=3;spacingRight=3;rotatable=0;labelPosition=right;points=[];portConstraint=eastwest;strokeColor=inherit;" parent="mp8nZ5o4XO6WJjloSZy4-48" vertex="1">
          <mxGeometry y="52" width="370" height="8" as="geometry" />
        </mxCell>
        <mxCell id="mp8nZ5o4XO6WJjloSZy4-51" value="+&amp;nbsp;&lt;span style=&quot;text-align: center;&quot;&gt;CppOperationUnit&lt;/span&gt;(text: string)" style="text;strokeColor=none;fillColor=none;align=left;verticalAlign=top;spacingLeft=4;spacingRight=4;overflow=hidden;rotatable=0;points=[[0,0.5],[1,0.5]];portConstraint=eastwest;whiteSpace=wrap;html=1;" parent="mp8nZ5o4XO6WJjloSZy4-48" vertex="1">
          <mxGeometry y="60" width="370" height="30" as="geometry" />
        </mxCell>
        <mxCell id="mp8nZ5o4XO6WJjloSZy4-52" value="+ complie(level: int): string" style="text;strokeColor=none;fillColor=none;align=left;verticalAlign=top;spacingLeft=4;spacingRight=4;overflow=hidden;rotatable=0;points=[[0,0.5],[1,0.5]];portConstraint=eastwest;whiteSpace=wrap;html=1;" parent="mp8nZ5o4XO6WJjloSZy4-48" vertex="1">
          <mxGeometry y="90" width="370" height="26" as="geometry" />
        </mxCell>
        <mxCell id="yi9F2hUMOcIZ3VDtwogj-10" style="edgeStyle=orthogonalEdgeStyle;rounded=0;orthogonalLoop=1;jettySize=auto;html=1;entryX=1;entryY=0.5;entryDx=0;entryDy=0;endSize=14;endArrow=block;endFill=0;strokeWidth=2;" edge="1" parent="WIyWlLk6GJQsqaUBKTNV-1" source="yi9F2hUMOcIZ3VDtwogj-1" target="IS594JqyZ8pi_EjxFz1i-16">
          <mxGeometry relative="1" as="geometry" />
        </mxCell>
        <mxCell id="yi9F2hUMOcIZ3VDtwogj-1" value="" style="shape=waypoint;sketch=0;fillStyle=solid;size=6;pointerEvents=1;points=[];fillColor=none;resizable=0;rotatable=0;perimeter=centerPerimeter;snapToPoint=1;strokeColor=default;" vertex="1" parent="WIyWlLk6GJQsqaUBKTNV-1">
          <mxGeometry x="-1203" y="659" width="20" height="20" as="geometry" />
        </mxCell>
        <mxCell id="yi9F2hUMOcIZ3VDtwogj-2" value="" style="shape=waypoint;sketch=0;fillStyle=solid;size=6;pointerEvents=1;points=[];fillColor=none;resizable=0;rotatable=0;perimeter=centerPerimeter;snapToPoint=1;strokeColor=default;" vertex="1" parent="WIyWlLk6GJQsqaUBKTNV-1">
          <mxGeometry x="-1203" y="353" width="20" height="20" as="geometry" />
        </mxCell>
        <mxCell id="yi9F2hUMOcIZ3VDtwogj-3" value="" style="shape=waypoint;sketch=0;fillStyle=solid;size=6;pointerEvents=1;points=[];fillColor=none;resizable=0;rotatable=0;perimeter=centerPerimeter;snapToPoint=1;fontSize=11;strokeWidth=0;strokeColor=none;" vertex="1" parent="WIyWlLk6GJQsqaUBKTNV-1">
          <mxGeometry x="-1183" y="961" width="20" height="20" as="geometry" />
        </mxCell>
        <mxCell id="yi9F2hUMOcIZ3VDtwogj-5" style="edgeStyle=orthogonalEdgeStyle;rounded=0;orthogonalLoop=1;jettySize=auto;html=1;entryX=0.255;entryY=0.714;entryDx=0;entryDy=0;entryPerimeter=0;endArrow=none;startFill=0;exitX=0;exitY=0.5;exitDx=0;exitDy=0;strokeWidth=2;" edge="1" parent="WIyWlLk6GJQsqaUBKTNV-1" source="IS594JqyZ8pi_EjxFz1i-28" target="yi9F2hUMOcIZ3VDtwogj-2">
          <mxGeometry relative="1" as="geometry" />
        </mxCell>
        <mxCell id="yi9F2hUMOcIZ3VDtwogj-6" style="edgeStyle=orthogonalEdgeStyle;rounded=0;orthogonalLoop=1;jettySize=auto;html=1;entryX=0.733;entryY=0.489;entryDx=0;entryDy=0;entryPerimeter=0;endArrow=none;startFill=0;exitX=0.001;exitY=0.423;exitDx=0;exitDy=0;exitPerimeter=0;strokeWidth=2;" edge="1" parent="WIyWlLk6GJQsqaUBKTNV-1" source="IS594JqyZ8pi_EjxFz1i-32" target="yi9F2hUMOcIZ3VDtwogj-1">
          <mxGeometry relative="1" as="geometry">
            <mxPoint x="-993" y="493" as="sourcePoint" />
          </mxGeometry>
        </mxCell>
        <mxCell id="yi9F2hUMOcIZ3VDtwogj-9" style="edgeStyle=orthogonalEdgeStyle;rounded=0;orthogonalLoop=1;jettySize=auto;html=1;entryX=0.62;entryY=-0.05;entryDx=0;entryDy=0;entryPerimeter=0;endArrow=none;startFill=0;strokeWidth=2;" edge="1" parent="WIyWlLk6GJQsqaUBKTNV-1" source="yi9F2hUMOcIZ3VDtwogj-2" target="yi9F2hUMOcIZ3VDtwogj-1">
          <mxGeometry relative="1" as="geometry" />
        </mxCell>
        <mxCell id="yi9F2hUMOcIZ3VDtwogj-13" value="" style="shape=waypoint;sketch=0;fillStyle=solid;size=6;pointerEvents=1;points=[];fillColor=none;resizable=0;rotatable=0;perimeter=centerPerimeter;snapToPoint=1;" vertex="1" parent="WIyWlLk6GJQsqaUBKTNV-1">
          <mxGeometry x="30" y="65" width="20" height="20" as="geometry" />
        </mxCell>
        <mxCell id="yi9F2hUMOcIZ3VDtwogj-14" value="" style="shape=waypoint;sketch=0;fillStyle=solid;size=6;pointerEvents=1;points=[];fillColor=none;resizable=0;rotatable=0;perimeter=centerPerimeter;snapToPoint=1;" vertex="1" parent="WIyWlLk6GJQsqaUBKTNV-1">
          <mxGeometry x="-383" y="65" width="20" height="20" as="geometry" />
        </mxCell>
        <mxCell id="yi9F2hUMOcIZ3VDtwogj-15" value="" style="shape=waypoint;sketch=0;fillStyle=solid;size=6;pointerEvents=1;points=[];fillColor=none;resizable=0;rotatable=0;perimeter=centerPerimeter;snapToPoint=1;" vertex="1" parent="WIyWlLk6GJQsqaUBKTNV-1">
          <mxGeometry x="517" y="65" width="20" height="20" as="geometry" />
        </mxCell>
        <mxCell id="yi9F2hUMOcIZ3VDtwogj-19" style="edgeStyle=orthogonalEdgeStyle;rounded=0;orthogonalLoop=1;jettySize=auto;html=1;entryX=-0.027;entryY=0.571;entryDx=0;entryDy=0;entryPerimeter=0;endArrow=none;startFill=0;strokeWidth=2;" edge="1" parent="WIyWlLk6GJQsqaUBKTNV-1" source="yi9F2hUMOcIZ3VDtwogj-14" target="yi9F2hUMOcIZ3VDtwogj-13">
          <mxGeometry relative="1" as="geometry" />
        </mxCell>
        <mxCell id="yi9F2hUMOcIZ3VDtwogj-22" style="edgeStyle=orthogonalEdgeStyle;rounded=0;orthogonalLoop=1;jettySize=auto;html=1;entryX=0.249;entryY=0.541;entryDx=0;entryDy=0;entryPerimeter=0;endArrow=none;startFill=0;strokeWidth=2;" edge="1" parent="WIyWlLk6GJQsqaUBKTNV-1" source="yi9F2hUMOcIZ3VDtwogj-13" target="yi9F2hUMOcIZ3VDtwogj-15">
          <mxGeometry relative="1" as="geometry" />
        </mxCell>
        <mxCell id="yi9F2hUMOcIZ3VDtwogj-24" value="" style="shape=waypoint;sketch=0;size=6;pointerEvents=1;points=[];fillColor=default;resizable=0;rotatable=0;perimeter=centerPerimeter;snapToPoint=1;verticalAlign=top;fontStyle=1;startSize=26;" vertex="1" parent="WIyWlLk6GJQsqaUBKTNV-1">
          <mxGeometry x="-1203" y="919" width="20" height="20" as="geometry" />
        </mxCell>
        <mxCell id="yi9F2hUMOcIZ3VDtwogj-26" style="edgeStyle=orthogonalEdgeStyle;rounded=0;orthogonalLoop=1;jettySize=auto;html=1;entryX=0.161;entryY=1.111;entryDx=0;entryDy=0;entryPerimeter=0;endArrow=none;startFill=0;strokeWidth=2;" edge="1" parent="WIyWlLk6GJQsqaUBKTNV-1" target="yi9F2hUMOcIZ3VDtwogj-1">
          <mxGeometry relative="1" as="geometry">
            <mxPoint x="-1193" y="929" as="sourcePoint" />
          </mxGeometry>
        </mxCell>
        <mxCell id="yi9F2hUMOcIZ3VDtwogj-30" value="" style="edgeStyle=orthogonalEdgeStyle;rounded=0;orthogonalLoop=1;jettySize=auto;html=1;endArrow=none;startFill=0;dashed=1;endSize=14;startSize=14;strokeColor=#616161;" edge="1" parent="WIyWlLk6GJQsqaUBKTNV-1" source="yi9F2hUMOcIZ3VDtwogj-27" target="yi9F2hUMOcIZ3VDtwogj-29">
          <mxGeometry relative="1" as="geometry" />
        </mxCell>
        <mxCell id="yi9F2hUMOcIZ3VDtwogj-35" value="" style="edgeStyle=orthogonalEdgeStyle;rounded=0;orthogonalLoop=1;jettySize=auto;html=1;entryX=0.5;entryY=0;entryDx=0;entryDy=0;endArrow=open;startFill=0;dashed=1;endSize=14;startSize=14;endFill=0;strokeColor=#616161;" edge="1" parent="WIyWlLk6GJQsqaUBKTNV-1" source="yi9F2hUMOcIZ3VDtwogj-27" target="mp8nZ5o4XO6WJjloSZy4-34">
          <mxGeometry relative="1" as="geometry" />
        </mxCell>
        <mxCell id="yi9F2hUMOcIZ3VDtwogj-27" value="" style="shape=waypoint;sketch=0;size=6;pointerEvents=1;points=[];fillColor=default;resizable=0;rotatable=0;perimeter=centerPerimeter;snapToPoint=1;verticalAlign=top;fontStyle=1;startSize=26;" vertex="1" parent="WIyWlLk6GJQsqaUBKTNV-1">
          <mxGeometry x="-618" y="919" width="20" height="20" as="geometry" />
        </mxCell>
        <mxCell id="yi9F2hUMOcIZ3VDtwogj-32" value="" style="edgeStyle=orthogonalEdgeStyle;rounded=0;orthogonalLoop=1;jettySize=auto;html=1;endArrow=none;startFill=0;dashed=1;endSize=14;startSize=14;strokeColor=#616161;" edge="1" parent="WIyWlLk6GJQsqaUBKTNV-1" source="yi9F2hUMOcIZ3VDtwogj-29" target="yi9F2hUMOcIZ3VDtwogj-31">
          <mxGeometry relative="1" as="geometry" />
        </mxCell>
        <mxCell id="yi9F2hUMOcIZ3VDtwogj-33" value="" style="edgeStyle=orthogonalEdgeStyle;rounded=0;orthogonalLoop=1;jettySize=auto;html=1;endArrow=open;startFill=0;dashed=1;endSize=14;startSize=14;endFill=0;strokeColor=#616161;" edge="1" parent="WIyWlLk6GJQsqaUBKTNV-1" source="yi9F2hUMOcIZ3VDtwogj-29" target="mp8nZ5o4XO6WJjloSZy4-25">
          <mxGeometry relative="1" as="geometry" />
        </mxCell>
        <mxCell id="yi9F2hUMOcIZ3VDtwogj-29" value="" style="shape=waypoint;sketch=0;size=6;pointerEvents=1;points=[];fillColor=default;resizable=0;rotatable=0;perimeter=centerPerimeter;snapToPoint=1;verticalAlign=top;fontStyle=1;startSize=26;" vertex="1" parent="WIyWlLk6GJQsqaUBKTNV-1">
          <mxGeometry x="-178" y="919" width="20" height="20" as="geometry" />
        </mxCell>
        <mxCell id="yi9F2hUMOcIZ3VDtwogj-34" value="" style="edgeStyle=orthogonalEdgeStyle;rounded=0;orthogonalLoop=1;jettySize=auto;html=1;entryX=0.5;entryY=0;entryDx=0;entryDy=0;exitX=-0.08;exitY=0.448;exitDx=0;exitDy=0;exitPerimeter=0;endArrow=open;startFill=0;dashed=1;endSize=14;startSize=14;endFill=0;strokeColor=#616161;" edge="1" parent="WIyWlLk6GJQsqaUBKTNV-1" source="yi9F2hUMOcIZ3VDtwogj-31" target="mp8nZ5o4XO6WJjloSZy4-31">
          <mxGeometry relative="1" as="geometry" />
        </mxCell>
        <mxCell id="yi9F2hUMOcIZ3VDtwogj-31" value="" style="shape=waypoint;sketch=0;size=6;pointerEvents=1;points=[];fillColor=default;resizable=0;rotatable=0;perimeter=centerPerimeter;snapToPoint=1;verticalAlign=top;fontStyle=1;startSize=26;" vertex="1" parent="WIyWlLk6GJQsqaUBKTNV-1">
          <mxGeometry x="282" y="919" width="20" height="20" as="geometry" />
        </mxCell>
        <mxCell id="yi9F2hUMOcIZ3VDtwogj-38" value="" style="edgeStyle=orthogonalEdgeStyle;rounded=0;orthogonalLoop=1;jettySize=auto;html=1;entryX=0.5;entryY=0;entryDx=0;entryDy=0;endArrow=open;startFill=0;dashed=1;endSize=14;startSize=14;endFill=0;strokeColor=#616161;" edge="1" parent="WIyWlLk6GJQsqaUBKTNV-1" source="yi9F2hUMOcIZ3VDtwogj-36" target="mp8nZ5o4XO6WJjloSZy4-48">
          <mxGeometry relative="1" as="geometry" />
        </mxCell>
        <mxCell id="yi9F2hUMOcIZ3VDtwogj-40" value="" style="edgeStyle=orthogonalEdgeStyle;rounded=0;orthogonalLoop=1;jettySize=auto;html=1;endArrow=none;startFill=0;dashed=1;endSize=14;startSize=14;strokeColor=#616161;" edge="1" parent="WIyWlLk6GJQsqaUBKTNV-1" source="yi9F2hUMOcIZ3VDtwogj-36" target="yi9F2hUMOcIZ3VDtwogj-39">
          <mxGeometry relative="1" as="geometry" />
        </mxCell>
        <mxCell id="yi9F2hUMOcIZ3VDtwogj-36" value="" style="shape=waypoint;sketch=0;size=6;pointerEvents=1;points=[];fillColor=default;resizable=0;rotatable=0;perimeter=centerPerimeter;snapToPoint=1;verticalAlign=top;fontStyle=1;startSize=26;" vertex="1" parent="WIyWlLk6GJQsqaUBKTNV-1">
          <mxGeometry x="-618" y="648" width="20" height="20" as="geometry" />
        </mxCell>
        <mxCell id="yi9F2hUMOcIZ3VDtwogj-41" value="" style="edgeStyle=orthogonalEdgeStyle;rounded=0;orthogonalLoop=1;jettySize=auto;html=1;endArrow=open;startFill=0;dashed=1;endSize=14;startSize=14;endFill=0;" edge="1" parent="WIyWlLk6GJQsqaUBKTNV-1" source="yi9F2hUMOcIZ3VDtwogj-39" target="mp8nZ5o4XO6WJjloSZy4-39">
          <mxGeometry relative="1" as="geometry" />
        </mxCell>
        <mxCell id="yi9F2hUMOcIZ3VDtwogj-43" value="" style="edgeStyle=orthogonalEdgeStyle;rounded=0;orthogonalLoop=1;jettySize=auto;html=1;endArrow=none;startFill=0;dashed=1;endSize=14;startSize=14;strokeColor=#616161;" edge="1" parent="WIyWlLk6GJQsqaUBKTNV-1" source="yi9F2hUMOcIZ3VDtwogj-39" target="yi9F2hUMOcIZ3VDtwogj-42">
          <mxGeometry relative="1" as="geometry" />
        </mxCell>
        <mxCell id="yi9F2hUMOcIZ3VDtwogj-39" value="" style="shape=waypoint;sketch=0;size=6;pointerEvents=1;points=[];fillColor=default;resizable=0;rotatable=0;perimeter=centerPerimeter;snapToPoint=1;verticalAlign=top;fontStyle=1;startSize=26;" vertex="1" parent="WIyWlLk6GJQsqaUBKTNV-1">
          <mxGeometry x="-178" y="647" width="20" height="20" as="geometry" />
        </mxCell>
        <mxCell id="yi9F2hUMOcIZ3VDtwogj-42" value="" style="shape=waypoint;sketch=0;size=6;pointerEvents=1;points=[];fillColor=default;resizable=0;rotatable=0;perimeter=centerPerimeter;snapToPoint=1;verticalAlign=top;fontStyle=1;startSize=26;" vertex="1" parent="WIyWlLk6GJQsqaUBKTNV-1">
          <mxGeometry x="282" y="648" width="20" height="20" as="geometry" />
        </mxCell>
        <mxCell id="yi9F2hUMOcIZ3VDtwogj-50" value="" style="edgeStyle=orthogonalEdgeStyle;rounded=0;orthogonalLoop=1;jettySize=auto;html=1;entryX=0.5;entryY=0;entryDx=0;entryDy=0;endArrow=open;startFill=0;dashed=1;endSize=14;startSize=14;endFill=0;strokeWidth=1;strokeColor=#616161;" edge="1" parent="WIyWlLk6GJQsqaUBKTNV-1" source="yi9F2hUMOcIZ3VDtwogj-48" target="mp8nZ5o4XO6WJjloSZy4-20">
          <mxGeometry relative="1" as="geometry" />
        </mxCell>
        <mxCell id="yi9F2hUMOcIZ3VDtwogj-52" value="" style="edgeStyle=orthogonalEdgeStyle;rounded=0;orthogonalLoop=1;jettySize=auto;html=1;endArrow=none;startFill=0;dashed=1;endSize=14;startSize=14;strokeWidth=1;strokeColor=#616161;" edge="1" parent="WIyWlLk6GJQsqaUBKTNV-1" source="yi9F2hUMOcIZ3VDtwogj-48" target="yi9F2hUMOcIZ3VDtwogj-51">
          <mxGeometry relative="1" as="geometry" />
        </mxCell>
        <mxCell id="yi9F2hUMOcIZ3VDtwogj-48" value="" style="shape=waypoint;sketch=0;size=6;pointerEvents=1;points=[];fillColor=default;resizable=0;rotatable=0;perimeter=centerPerimeter;snapToPoint=1;verticalAlign=top;fontStyle=1;startSize=26;" vertex="1" parent="WIyWlLk6GJQsqaUBKTNV-1">
          <mxGeometry x="-628" y="340" width="20" height="20" as="geometry" />
        </mxCell>
        <mxCell id="yi9F2hUMOcIZ3VDtwogj-53" value="" style="edgeStyle=orthogonalEdgeStyle;rounded=0;orthogonalLoop=1;jettySize=auto;html=1;exitX=0.933;exitY=0.562;exitDx=0;exitDy=0;exitPerimeter=0;endArrow=open;startFill=0;dashed=1;endSize=14;startSize=14;endFill=0;strokeWidth=1;strokeColor=#616161;" edge="1" parent="WIyWlLk6GJQsqaUBKTNV-1" source="yi9F2hUMOcIZ3VDtwogj-51" target="mp8nZ5o4XO6WJjloSZy4-8">
          <mxGeometry relative="1" as="geometry" />
        </mxCell>
        <mxCell id="yi9F2hUMOcIZ3VDtwogj-55" value="" style="edgeStyle=orthogonalEdgeStyle;rounded=0;orthogonalLoop=1;jettySize=auto;html=1;endArrow=none;startFill=0;dashed=1;endSize=14;startSize=14;strokeWidth=1;strokeColor=#616161;" edge="1" parent="WIyWlLk6GJQsqaUBKTNV-1" source="yi9F2hUMOcIZ3VDtwogj-51" target="yi9F2hUMOcIZ3VDtwogj-54">
          <mxGeometry relative="1" as="geometry" />
        </mxCell>
        <mxCell id="yi9F2hUMOcIZ3VDtwogj-51" value="" style="shape=waypoint;sketch=0;size=6;pointerEvents=1;points=[];fillColor=default;resizable=0;rotatable=0;perimeter=centerPerimeter;snapToPoint=1;verticalAlign=top;fontStyle=1;startSize=26;" vertex="1" parent="WIyWlLk6GJQsqaUBKTNV-1">
          <mxGeometry x="-170.5" y="340" width="20" height="20" as="geometry" />
        </mxCell>
        <mxCell id="yi9F2hUMOcIZ3VDtwogj-54" value="" style="shape=waypoint;sketch=0;size=6;pointerEvents=1;points=[];fillColor=default;resizable=0;rotatable=0;perimeter=centerPerimeter;snapToPoint=1;verticalAlign=top;fontStyle=1;startSize=26;" vertex="1" parent="WIyWlLk6GJQsqaUBKTNV-1">
          <mxGeometry x="282" y="340" width="20" height="20" as="geometry" />
        </mxCell>
        <mxCell id="yi9F2hUMOcIZ3VDtwogj-68" value="" style="edgeStyle=orthogonalEdgeStyle;rounded=0;orthogonalLoop=1;jettySize=auto;html=1;endSize=14;startSize=14;endArrow=none;startFill=0;dashed=1;jumpSize=9;dashPattern=8 8;strokeWidth=2;" edge="1" parent="WIyWlLk6GJQsqaUBKTNV-1" source="yi9F2hUMOcIZ3VDtwogj-60" target="yi9F2hUMOcIZ3VDtwogj-67">
          <mxGeometry relative="1" as="geometry" />
        </mxCell>
        <mxCell id="yi9F2hUMOcIZ3VDtwogj-60" value="" style="shape=waypoint;sketch=0;fillStyle=solid;size=6;pointerEvents=1;points=[];fillColor=none;resizable=0;rotatable=0;perimeter=centerPerimeter;snapToPoint=1;" vertex="1" parent="WIyWlLk6GJQsqaUBKTNV-1">
          <mxGeometry x="-383" y="1066" width="20" height="20" as="geometry" />
        </mxCell>
        <mxCell id="yi9F2hUMOcIZ3VDtwogj-71" value="" style="edgeStyle=orthogonalEdgeStyle;rounded=0;orthogonalLoop=1;jettySize=auto;html=1;endSize=14;startSize=14;endArrow=none;startFill=0;dashed=1;jumpSize=9;dashPattern=8 8;strokeWidth=2;" edge="1" parent="WIyWlLk6GJQsqaUBKTNV-1" source="yi9F2hUMOcIZ3VDtwogj-67" target="yi9F2hUMOcIZ3VDtwogj-70">
          <mxGeometry relative="1" as="geometry" />
        </mxCell>
        <mxCell id="yi9F2hUMOcIZ3VDtwogj-67" value="" style="shape=waypoint;sketch=0;fillStyle=solid;size=6;pointerEvents=1;points=[];fillColor=none;resizable=0;rotatable=0;perimeter=centerPerimeter;snapToPoint=1;" vertex="1" parent="WIyWlLk6GJQsqaUBKTNV-1">
          <mxGeometry x="-383" y="795" width="20" height="20" as="geometry" />
        </mxCell>
        <mxCell id="yi9F2hUMOcIZ3VDtwogj-73" style="edgeStyle=orthogonalEdgeStyle;rounded=0;orthogonalLoop=1;jettySize=auto;html=1;entryX=0.5;entryY=1;entryDx=0;entryDy=0;endSize=14;startSize=14;endArrow=block;startFill=0;dashed=1;jumpSize=12;dashPattern=8 8;endFill=0;curved=0;strokeWidth=2;" edge="1" parent="WIyWlLk6GJQsqaUBKTNV-1" source="yi9F2hUMOcIZ3VDtwogj-70" target="zkfFHV4jXpPFQw0GAbJ--17">
          <mxGeometry relative="1" as="geometry" />
        </mxCell>
        <mxCell id="yi9F2hUMOcIZ3VDtwogj-70" value="" style="shape=waypoint;sketch=0;fillStyle=solid;size=6;pointerEvents=1;points=[];fillColor=none;resizable=0;rotatable=0;perimeter=centerPerimeter;snapToPoint=1;" vertex="1" parent="WIyWlLk6GJQsqaUBKTNV-1">
          <mxGeometry x="-383" y="492" width="20" height="20" as="geometry" />
        </mxCell>
        <mxCell id="yi9F2hUMOcIZ3VDtwogj-83" value="" style="edgeStyle=orthogonalEdgeStyle;rounded=0;orthogonalLoop=1;jettySize=auto;html=1;endSize=14;startSize=14;endArrow=none;startFill=0;dashed=1;jumpSize=9;dashPattern=8 8;strokeWidth=2;" edge="1" parent="WIyWlLk6GJQsqaUBKTNV-1" source="yi9F2hUMOcIZ3VDtwogj-80" target="yi9F2hUMOcIZ3VDtwogj-82">
          <mxGeometry relative="1" as="geometry" />
        </mxCell>
        <mxCell id="yi9F2hUMOcIZ3VDtwogj-80" value="" style="shape=waypoint;sketch=0;size=6;pointerEvents=1;points=[];fillColor=default;resizable=0;rotatable=0;perimeter=centerPerimeter;snapToPoint=1;verticalAlign=top;fontStyle=1;startSize=26;" vertex="1" parent="WIyWlLk6GJQsqaUBKTNV-1">
          <mxGeometry x="31" y="1066" width="20" height="20" as="geometry" />
        </mxCell>
        <mxCell id="yi9F2hUMOcIZ3VDtwogj-86" value="" style="edgeStyle=orthogonalEdgeStyle;rounded=0;orthogonalLoop=1;jettySize=auto;html=1;endSize=14;startSize=14;endArrow=none;startFill=0;dashed=1;jumpSize=9;dashPattern=8 8;strokeWidth=2;" edge="1" parent="WIyWlLk6GJQsqaUBKTNV-1" source="yi9F2hUMOcIZ3VDtwogj-82" target="yi9F2hUMOcIZ3VDtwogj-85">
          <mxGeometry relative="1" as="geometry" />
        </mxCell>
        <mxCell id="yi9F2hUMOcIZ3VDtwogj-82" value="" style="shape=waypoint;sketch=0;size=6;pointerEvents=1;points=[];fillColor=default;resizable=0;rotatable=0;perimeter=centerPerimeter;snapToPoint=1;verticalAlign=top;fontStyle=1;startSize=26;" vertex="1" parent="WIyWlLk6GJQsqaUBKTNV-1">
          <mxGeometry x="31" y="792" width="20" height="20" as="geometry" />
        </mxCell>
        <mxCell id="yi9F2hUMOcIZ3VDtwogj-88" style="edgeStyle=orthogonalEdgeStyle;rounded=0;orthogonalLoop=1;jettySize=auto;html=1;endSize=14;startSize=14;endArrow=block;startFill=0;dashed=1;jumpSize=12;dashPattern=8 8;endFill=0;curved=0;strokeWidth=2;" edge="1" parent="WIyWlLk6GJQsqaUBKTNV-1" source="yi9F2hUMOcIZ3VDtwogj-85" target="IS594JqyZ8pi_EjxFz1i-10">
          <mxGeometry relative="1" as="geometry" />
        </mxCell>
        <mxCell id="yi9F2hUMOcIZ3VDtwogj-85" value="" style="shape=waypoint;sketch=0;size=6;pointerEvents=1;points=[];fillColor=default;resizable=0;rotatable=0;perimeter=centerPerimeter;snapToPoint=1;verticalAlign=top;fontStyle=1;startSize=26;" vertex="1" parent="WIyWlLk6GJQsqaUBKTNV-1">
          <mxGeometry x="31" y="492" width="20" height="20" as="geometry" />
        </mxCell>
        <mxCell id="yi9F2hUMOcIZ3VDtwogj-92" value="" style="edgeStyle=orthogonalEdgeStyle;rounded=0;orthogonalLoop=1;jettySize=auto;html=1;endSize=14;startSize=14;endArrow=none;startFill=0;dashed=1;jumpSize=9;dashPattern=8 8;strokeWidth=2;" edge="1" parent="WIyWlLk6GJQsqaUBKTNV-1" source="yi9F2hUMOcIZ3VDtwogj-89" target="yi9F2hUMOcIZ3VDtwogj-91">
          <mxGeometry relative="1" as="geometry" />
        </mxCell>
        <mxCell id="yi9F2hUMOcIZ3VDtwogj-89" value="" style="shape=waypoint;sketch=0;size=6;pointerEvents=1;points=[];fillColor=default;resizable=0;rotatable=0;perimeter=centerPerimeter;snapToPoint=1;verticalAlign=top;fontStyle=1;startSize=26;" vertex="1" parent="WIyWlLk6GJQsqaUBKTNV-1">
          <mxGeometry x="517" y="1049" width="20" height="20" as="geometry" />
        </mxCell>
        <mxCell id="yi9F2hUMOcIZ3VDtwogj-95" value="" style="edgeStyle=orthogonalEdgeStyle;rounded=0;orthogonalLoop=1;jettySize=auto;html=1;endSize=14;startSize=14;endArrow=none;startFill=0;dashed=1;jumpSize=9;dashPattern=8 8;strokeWidth=2;" edge="1" parent="WIyWlLk6GJQsqaUBKTNV-1" source="yi9F2hUMOcIZ3VDtwogj-91" target="yi9F2hUMOcIZ3VDtwogj-94">
          <mxGeometry relative="1" as="geometry" />
        </mxCell>
        <mxCell id="yi9F2hUMOcIZ3VDtwogj-91" value="" style="shape=waypoint;sketch=0;size=6;pointerEvents=1;points=[];fillColor=default;resizable=0;rotatable=0;perimeter=centerPerimeter;snapToPoint=1;verticalAlign=top;fontStyle=1;startSize=26;" vertex="1" parent="WIyWlLk6GJQsqaUBKTNV-1">
          <mxGeometry x="517" y="795" width="20" height="20" as="geometry" />
        </mxCell>
        <mxCell id="yi9F2hUMOcIZ3VDtwogj-97" style="edgeStyle=orthogonalEdgeStyle;rounded=0;orthogonalLoop=1;jettySize=auto;html=1;endSize=14;startSize=14;endArrow=block;startFill=0;dashed=1;jumpSize=12;dashPattern=8 8;endFill=0;curved=0;strokeWidth=2;" edge="1" parent="WIyWlLk6GJQsqaUBKTNV-1" source="yi9F2hUMOcIZ3VDtwogj-94" target="IS594JqyZ8pi_EjxFz1i-2">
          <mxGeometry relative="1" as="geometry" />
        </mxCell>
        <mxCell id="yi9F2hUMOcIZ3VDtwogj-94" value="" style="shape=waypoint;sketch=0;size=6;pointerEvents=1;points=[];fillColor=default;resizable=0;rotatable=0;perimeter=centerPerimeter;snapToPoint=1;verticalAlign=top;fontStyle=1;startSize=26;" vertex="1" parent="WIyWlLk6GJQsqaUBKTNV-1">
          <mxGeometry x="517" y="475" width="20" height="20" as="geometry" />
        </mxCell>
        <mxCell id="yi9F2hUMOcIZ3VDtwogj-101" value="" style="shape=waypoint;sketch=0;fillStyle=solid;size=6;pointerEvents=1;fillColor=none;resizable=0;rotatable=0;perimeter=centerPerimeter;snapToPoint=1;align=center;verticalAlign=middle;fontFamily=Helvetica;fontSize=12;fontColor=default;strokeColor=none;" vertex="1" parent="WIyWlLk6GJQsqaUBKTNV-1">
          <mxGeometry x="-1433" y="846" width="20" height="20" as="geometry" />
        </mxCell>
        <mxCell id="yi9F2hUMOcIZ3VDtwogj-104" style="edgeStyle=orthogonalEdgeStyle;rounded=0;orthogonalLoop=1;jettySize=auto;html=1;entryX=1.012;entryY=0.746;entryDx=0;entryDy=0;entryPerimeter=0;fontFamily=Helvetica;fontSize=12;fontColor=default;resizable=0;endSize=14;strokeWidth=2;endArrow=block;endFill=0;" edge="1" parent="WIyWlLk6GJQsqaUBKTNV-1" source="yi9F2hUMOcIZ3VDtwogj-14" target="zkfFHV4jXpPFQw0GAbJ--3">
          <mxGeometry relative="1" as="geometry" />
        </mxCell>
      </root>
    </mxGraphModel>
  </diagram>
</mxfile>
